<?xml version="1.0" encoding="UTF-8" standalone="no"?><!DOCTYPE svg PUBLIC "-//W3C//DTD SVG 1.1//EN" "http://www.w3.org/Graphics/SVG/1.1/DTD/svg11.dtd"><!-- Generated by graphviz version 2.40.1 (20161225.0304)
 --><!-- Pages: 1 --><svg xmlns="http://www.w3.org/2000/svg" xmlns:xlink="http://www.w3.org/1999/xlink" width="1006pt" height="588pt" viewBox="0.00 0.00 1006.13 588.00">
<g id="graph0" class="graph" transform="scale(1 1) rotate(0) translate(4 584)">
<polygon fill="#ffffff" stroke="transparent" points="-4,4 -4,-584 1002.1259,-584 1002.1259,4 -4,4"/>
<g id="clust1" class="cluster">
<title>cluster~</title>
<path fill="none" stroke="#000000" stroke-width="2" d="M20,-8C20,-8 976,-8 976,-8 982,-8 988,-14 988,-20 988,-20 988,-560 988,-560 988,-566 982,-572 976,-572 976,-572 20,-572 20,-572 14,-572 8,-566 8,-560 8,-560 8,-20 8,-20 8,-14 14,-8 20,-8"/>
<text text-anchor="middle" x="498" y="-556.3" font-family="Arial Black" font-size="13.00" fill="#000000">practice_1</text>
</g>
<g id="clust2" class="cluster">
<title>cluster~/bin</title>
<path fill="none" stroke="#000000" stroke-width="2" d="M712,-464.8C712,-464.8 790,-464.8 790,-464.8 796,-464.8 802,-470.8 802,-476.8 802,-476.8 802,-528.4 802,-528.4 802,-534.4 796,-540.4 790,-540.4 790,-540.4 712,-540.4 712,-540.4 706,-540.4 700,-534.4 700,-528.4 700,-528.4 700,-476.8 700,-476.8 700,-470.8 706,-464.8 712,-464.8"/>
<text text-anchor="middle" x="751" y="-524.7" font-family="Arial Black" font-size="13.00" fill="#000000">bin</text>
</g>
<g id="clust3" class="cluster">
<title>cluster~/lib</title>
<path fill="none" stroke="#000000" stroke-width="2" d="M28,-16C28,-16 968,-16 968,-16 974,-16 980,-22 980,-28 980,-28 980,-444.8 980,-444.8 980,-450.8 974,-456.8 968,-456.8 968,-456.8 28,-456.8 28,-456.8 22,-456.8 16,-450.8 16,-444.8 16,-444.8 16,-28 16,-28 16,-22 22,-16 28,-16"/>
<text text-anchor="middle" x="498" y="-441.1" font-family="Arial Black" font-size="13.00" fill="#000000">lib</text>
</g>
<g id="clust4" class="cluster">
<title>cluster~/lib/features</title>
<path fill="none" stroke="#000000" stroke-width="2" d="M36,-24C36,-24 960,-24 960,-24 966,-24 972,-30 972,-36 972,-36 972,-413.2 972,-413.2 972,-419.2 966,-425.2 960,-425.2 960,-425.2 36,-425.2 36,-425.2 30,-425.2 24,-419.2 24,-413.2 24,-413.2 24,-36 24,-36 24,-30 30,-24 36,-24"/>
<text text-anchor="middle" x="498" y="-409.5" font-family="Arial Black" font-size="13.00" fill="#000000">features</text>
</g>
<g id="clust5" class="cluster">
<title>cluster~/lib/features/core</title>
<path fill="none" stroke="#000000" stroke-width="2" d="M44,-32C44,-32 952,-32 952,-32 958,-32 964,-38 964,-44 964,-44 964,-381.6 964,-381.6 964,-387.6 958,-393.6 952,-393.6 952,-393.6 44,-393.6 44,-393.6 38,-393.6 32,-387.6 32,-381.6 32,-381.6 32,-44 32,-44 32,-38 38,-32 44,-32"/>
<text text-anchor="middle" x="498" y="-377.9" font-family="Arial Black" font-size="13.00" fill="#000000">core</text>
</g>
<g id="clust6" class="cluster">
<title>cluster~/lib/features/core/data</title>
<path fill="none" stroke="#000000" stroke-width="2" d="M348,-40C348,-40 944,-40 944,-40 950,-40 956,-46 956,-52 956,-52 956,-350 956,-350 956,-356 950,-362 944,-362 944,-362 348,-362 348,-362 342,-362 336,-356 336,-350 336,-350 336,-52 336,-52 336,-46 342,-40 348,-40"/>
<text text-anchor="middle" x="646" y="-346.3" font-family="Arial Black" font-size="13.00" fill="#000000">data</text>
</g>
<g id="clust7" class="cluster">
<title>cluster~/lib/features/core/data/debug</title>
<path fill="none" stroke="#000000" stroke-width="2" d="M356,-254.8C356,-254.8 542,-254.8 542,-254.8 548,-254.8 554,-260.8 554,-266.8 554,-266.8 554,-318.4 554,-318.4 554,-324.4 548,-330.4 542,-330.4 542,-330.4 356,-330.4 356,-330.4 350,-330.4 344,-324.4 344,-318.4 344,-318.4 344,-266.8 344,-266.8 344,-260.8 350,-254.8 356,-254.8"/>
<text text-anchor="middle" x="449" y="-314.7" font-family="Arial Black" font-size="13.00" fill="#000000">debug</text>
</g>
<g id="clust8" class="cluster">
<title>cluster~/lib/features/core/data/osm</title>
<path fill="none" stroke="#000000" stroke-width="2" d="M764,-48C764,-48 936,-48 936,-48 942,-48 948,-54 948,-60 948,-60 948,-318.4 948,-318.4 948,-324.4 942,-330.4 936,-330.4 936,-330.4 764,-330.4 764,-330.4 758,-330.4 752,-324.4 752,-318.4 752,-318.4 752,-60 752,-60 752,-54 758,-48 764,-48"/>
<text text-anchor="middle" x="850" y="-314.7" font-family="Arial Black" font-size="13.00" fill="#000000">osm</text>
</g>
<g id="clust9" class="cluster">
<title>cluster~/lib/features/core/data/osm/models</title>
<path fill="none" stroke="#000000" stroke-width="2" d="M815,-56C815,-56 913,-56 913,-56 919,-56 925,-62 925,-68 925,-68 925,-119.6 925,-119.6 925,-125.6 919,-131.6 913,-131.6 913,-131.6 815,-131.6 815,-131.6 809,-131.6 803,-125.6 803,-119.6 803,-119.6 803,-68 803,-68 803,-62 809,-56 815,-56"/>
<text text-anchor="middle" x="864" y="-115.9" font-family="Arial Black" font-size="13.00" fill="#000000">models</text>
</g>
<g id="clust10" class="cluster">
<title>cluster~/lib/features/core/data/vc</title>
<path fill="none" stroke="#000000" stroke-width="2" d="M574,-48C574,-48 732,-48 732,-48 738,-48 744,-54 744,-60 744,-60 744,-318.4 744,-318.4 744,-324.4 738,-330.4 732,-330.4 732,-330.4 574,-330.4 574,-330.4 568,-330.4 562,-324.4 562,-318.4 562,-318.4 562,-60 562,-60 562,-54 568,-48 574,-48"/>
<text text-anchor="middle" x="653" y="-314.7" font-family="Arial Black" font-size="13.00" fill="#000000">vc</text>
</g>
<g id="clust11" class="cluster">
<title>cluster~/lib/features/core/data/vc/models</title>
<path fill="none" stroke="#000000" stroke-width="2" d="M625,-56C625,-56 709,-56 709,-56 715,-56 721,-62 721,-68 721,-68 721,-119.6 721,-119.6 721,-125.6 715,-131.6 709,-131.6 709,-131.6 625,-131.6 625,-131.6 619,-131.6 613,-125.6 613,-119.6 613,-119.6 613,-68 613,-68 613,-62 619,-56 625,-56"/>
<text text-anchor="middle" x="667" y="-115.9" font-family="Arial Black" font-size="13.00" fill="#000000">models</text>
</g>
<g id="clust12" class="cluster">
<title>cluster~/lib/features/core/domain</title>
<path fill="none" stroke="#000000" stroke-width="2" d="M52,-48C52,-48 316,-48 316,-48 322,-48 328,-54 328,-60 328,-60 328,-234.8 328,-234.8 328,-240.8 322,-246.8 316,-246.8 316,-246.8 52,-246.8 52,-246.8 46,-246.8 40,-240.8 40,-234.8 40,-234.8 40,-60 40,-60 40,-54 46,-48 52,-48"/>
<text text-anchor="middle" x="184" y="-231.1" font-family="Arial Black" font-size="13.00" fill="#000000">domain</text>
</g>
<g id="clust13" class="cluster">
<title>cluster~/lib/features/core/domain/entities</title>
<path fill="none" stroke="#000000" stroke-width="2" d="M60,-56C60,-56 308,-56 308,-56 314,-56 320,-62 320,-68 320,-68 320,-119.6 320,-119.6 320,-125.6 314,-131.6 308,-131.6 308,-131.6 60,-131.6 60,-131.6 54,-131.6 48,-125.6 48,-119.6 48,-119.6 48,-68 48,-68 48,-62 54,-56 60,-56"/>
<text text-anchor="middle" x="184" y="-115.9" font-family="Arial Black" font-size="13.00" fill="#000000">entities</text>
</g>
<g id="clust14" class="cluster">
<title>cluster~/lib/features/core/domain/repositories</title>
<path fill="none" stroke="#000000" stroke-width="2" d="M172,-139.6C172,-139.6 308,-139.6 308,-139.6 314,-139.6 320,-145.6 320,-151.6 320,-151.6 320,-203.2 320,-203.2 320,-209.2 314,-215.2 308,-215.2 308,-215.2 172,-215.2 172,-215.2 166,-215.2 160,-209.2 160,-203.2 160,-203.2 160,-151.6 160,-151.6 160,-145.6 166,-139.6 172,-139.6"/>
<text text-anchor="middle" x="240" y="-199.5" font-family="Arial Black" font-size="13.00" fill="#000000">repositories</text>
</g>
<g id="clust15" class="cluster">
<title>cluster~/lib/features/core/presentation</title>
<path fill="none" stroke="#000000" stroke-width="2" d="M209,-254.8C209,-254.8 272,-254.8 272,-254.8 278,-254.8 284,-260.8 284,-266.8 284,-266.8 284,-318.4 284,-318.4 284,-324.4 278,-330.4 272,-330.4 272,-330.4 209,-330.4 209,-330.4 203,-330.4 197,-324.4 197,-318.4 197,-318.4 197,-266.8 197,-266.8 197,-260.8 203,-254.8 209,-254.8"/>
<text text-anchor="middle" x="240.5" y="-314.7" font-family="Arial Black" font-size="13.00" fill="#000000">presentation</text>
</g>
<!-- /bin/practice_1.dart -->
<g id="node1" class="node">
<title>/bin/practice_1.dart</title>
<path fill="#e6e6fa" stroke="#000000" stroke-width=".4" d="M781.6832,-508.8C781.6832,-508.8 720.3168,-508.8 720.3168,-508.8 714.3168,-508.8 708.3168,-502.8 708.3168,-496.8 708.3168,-496.8 708.3168,-484.8 708.3168,-484.8 708.3168,-478.8 714.3168,-472.8 720.3168,-472.8 720.3168,-472.8 781.6832,-472.8 781.6832,-472.8 787.6832,-472.8 793.6832,-478.8 793.6832,-484.8 793.6832,-484.8 793.6832,-496.8 793.6832,-496.8 793.6832,-502.8 787.6832,-508.8 781.6832,-508.8"/>
<text text-anchor="middle" x="751" y="-486.3" font-family="Arial" font-size="15.00" fill="#000000">practice_1</text>
</g>
<!-- /lib/features/core/data/debug/weather_repository_debug.dart -->
<g id="node2" class="node">
<title>/lib/features/core/data/debug/weather_repository_debug.dart</title>
<path fill="#e6e6fa" stroke="#000000" stroke-width=".4" d="M533.5525,-298.8C533.5525,-298.8 364.4475,-298.8 364.4475,-298.8 358.4475,-298.8 352.4475,-292.8 352.4475,-286.8 352.4475,-286.8 352.4475,-274.8 352.4475,-274.8 352.4475,-268.8 358.4475,-262.8 364.4475,-262.8 364.4475,-262.8 533.5525,-262.8 533.5525,-262.8 539.5525,-262.8 545.5525,-268.8 545.5525,-274.8 545.5525,-274.8 545.5525,-286.8 545.5525,-286.8 545.5525,-292.8 539.5525,-298.8 533.5525,-298.8"/>
<text text-anchor="middle" x="449" y="-276.3" font-family="Arial" font-size="15.00" fill="#000000">weather_repository_debug</text>
</g>
<!-- /bin/practice_1.dart&#45;&gt;/lib/features/core/data/debug/weather_repository_debug.dart -->
<g id="edge1" class="edge">
<title>/bin/practice_1.dart-&gt;/lib/features/core/data/debug/weather_repository_debug.dart</title>
<path fill="none" stroke="#000000" d="M708.3981,-487.3576C659.1964,-482.6895 581.9442,-473.0176 558,-456.8 503.2326,-419.7055 470.8755,-344.9811 457.0128,-305.9054"/>
<polygon fill="#000000" stroke="#000000" points="459.2421,-304.8555 454.6383,-299.0411 454.6113,-306.4574 459.2421,-304.8555"/>
</g>
<!-- /lib/features/core/data/osm/osm_api.dart -->
<g id="node4" class="node">
<title>/lib/features/core/data/osm/osm_api.dart</title>
<path fill="#e6e6fa" stroke="#000000" stroke-width=".4" d="M888.1767,-183.6C888.1767,-183.6 839.8233,-183.6 839.8233,-183.6 833.8233,-183.6 827.8233,-177.6 827.8233,-171.6 827.8233,-171.6 827.8233,-159.6 827.8233,-159.6 827.8233,-153.6 833.8233,-147.6 839.8233,-147.6 839.8233,-147.6 888.1767,-147.6 888.1767,-147.6 894.1767,-147.6 900.1767,-153.6 900.1767,-159.6 900.1767,-159.6 900.1767,-171.6 900.1767,-171.6 900.1767,-177.6 894.1767,-183.6 888.1767,-183.6"/>
<text text-anchor="middle" x="864" y="-161.1" font-family="Arial" font-size="15.00" fill="#000000">osm_api</text>
</g>
<!-- /bin/practice_1.dart&#45;&gt;/lib/features/core/data/osm/osm_api.dart -->
<g id="edge2" class="edge">
<title>/bin/practice_1.dart-&gt;/lib/features/core/data/osm/osm_api.dart</title>
<path fill="none" stroke="#000000" d="M793.8617,-486.8532C852.3638,-481.0268 951.2334,-469.4404 962,-456.8 1020.2143,-388.4542 998.2949,-336.9141 962,-254.8 949.5346,-226.5982 923.2611,-203.4771 901.0539,-187.8466"/>
<polygon fill="#000000" stroke="#000000" points="902.3689,-185.7776 895.2107,-183.8375 899.5966,-189.818 902.3689,-185.7776"/>
</g>
<!-- /lib/features/core/data/osm/weather_repository_osm.dart -->
<g id="node5" class="node">
<title>/lib/features/core/data/osm/weather_repository_osm.dart</title>
<path fill="#e6e6fa" stroke="#000000" stroke-width=".4" d="M928.1916,-298.8C928.1916,-298.8 771.8084,-298.8 771.8084,-298.8 765.8084,-298.8 759.8084,-292.8 759.8084,-286.8 759.8084,-286.8 759.8084,-274.8 759.8084,-274.8 759.8084,-268.8 765.8084,-262.8 771.8084,-262.8 771.8084,-262.8 928.1916,-262.8 928.1916,-262.8 934.1916,-262.8 940.1916,-268.8 940.1916,-274.8 940.1916,-274.8 940.1916,-286.8 940.1916,-286.8 940.1916,-292.8 934.1916,-298.8 928.1916,-298.8"/>
<text text-anchor="middle" x="850" y="-276.3" font-family="Arial" font-size="15.00" fill="#000000">weather_repository_osm</text>
</g>
<!-- /bin/practice_1.dart&#45;&gt;/lib/features/core/data/osm/weather_repository_osm.dart -->
<g id="edge3" class="edge">
<title>/bin/practice_1.dart-&gt;/lib/features/core/data/osm/weather_repository_osm.dart</title>
<path fill="none" stroke="#000000" d="M759.6124,-472.5312C777.4295,-434.7375 818.3464,-347.9441 838.4388,-305.3237"/>
<polygon fill="#000000" stroke="#000000" points="840.7091,-306.2534 841.478,-298.877 836.2769,-304.1639 840.7091,-306.2534"/>
</g>
<!-- /lib/features/core/data/vc/vc_api.dart -->
<g id="node7" class="node">
<title>/lib/features/core/data/vc/vc_api.dart</title>
<path fill="#e6e6fa" stroke="#000000" stroke-width=".4" d="M684.845,-183.6C684.845,-183.6 649.155,-183.6 649.155,-183.6 643.155,-183.6 637.155,-177.6 637.155,-171.6 637.155,-171.6 637.155,-159.6 637.155,-159.6 637.155,-153.6 643.155,-147.6 649.155,-147.6 649.155,-147.6 684.845,-147.6 684.845,-147.6 690.845,-147.6 696.845,-153.6 696.845,-159.6 696.845,-159.6 696.845,-171.6 696.845,-171.6 696.845,-177.6 690.845,-183.6 684.845,-183.6"/>
<text text-anchor="middle" x="667" y="-161.1" font-family="Arial" font-size="15.00" fill="#000000">vc_api</text>
</g>
<!-- /bin/practice_1.dart&#45;&gt;/lib/features/core/data/vc/vc_api.dart -->
<g id="edge4" class="edge">
<title>/bin/practice_1.dart-&gt;/lib/features/core/data/vc/vc_api.dart</title>
<path fill="none" stroke="#000000" d="M793.7222,-486.5022C849.6747,-480.4361 941.8917,-468.7617 952,-456.8 966.4868,-439.6569 967.5566,-270.9786 952,-254.8 936.2773,-238.4487 768.7776,-255.9027 748,-246.8 720.5625,-234.7797 697.4005,-208.8461 682.964,-189.5023"/>
<polygon fill="#000000" stroke="#000000" points="684.8672,-187.9538 678.7687,-183.7334 680.9043,-190.8357 684.8672,-187.9538"/>
</g>
<!-- /lib/features/core/data/vc/weather_repository_vc.dart -->
<g id="node8" class="node">
<title>/lib/features/core/data/vc/weather_repository_vc.dart</title>
<path fill="#e6e6fa" stroke="#000000" stroke-width=".4" d="M724.3596,-298.8C724.3596,-298.8 581.6404,-298.8 581.6404,-298.8 575.6404,-298.8 569.6404,-292.8 569.6404,-286.8 569.6404,-286.8 569.6404,-274.8 569.6404,-274.8 569.6404,-268.8 575.6404,-262.8 581.6404,-262.8 581.6404,-262.8 724.3596,-262.8 724.3596,-262.8 730.3596,-262.8 736.3596,-268.8 736.3596,-274.8 736.3596,-274.8 736.3596,-286.8 736.3596,-286.8 736.3596,-292.8 730.3596,-298.8 724.3596,-298.8"/>
<text text-anchor="middle" x="653" y="-276.3" font-family="Arial" font-size="15.00" fill="#000000">weather_repository_vc</text>
</g>
<!-- /bin/practice_1.dart&#45;&gt;/lib/features/core/data/vc/weather_repository_vc.dart -->
<g id="edge5" class="edge">
<title>/bin/practice_1.dart-&gt;/lib/features/core/data/vc/weather_repository_vc.dart</title>
<path fill="none" stroke="#000000" d="M742.4746,-472.5312C724.8375,-434.7375 684.3339,-347.9441 664.4444,-305.3237"/>
<polygon fill="#000000" stroke="#000000" points="666.6163,-304.1842 661.4359,-298.877 662.176,-306.2564 666.6163,-304.1842"/>
</g>
<!-- /lib/features/core/presentation/app.dart -->
<g id="node12" class="node">
<title>/lib/features/core/presentation/app.dart</title>
<path fill="#e6e6fa" stroke="#000000" stroke-width=".4" d="M255,-298.8C255,-298.8 225,-298.8 225,-298.8 219,-298.8 213,-292.8 213,-286.8 213,-286.8 213,-274.8 213,-274.8 213,-268.8 219,-262.8 225,-262.8 225,-262.8 255,-262.8 255,-262.8 261,-262.8 267,-268.8 267,-274.8 267,-274.8 267,-286.8 267,-286.8 267,-292.8 261,-298.8 255,-298.8"/>
<text text-anchor="middle" x="240" y="-276.3" font-family="Arial" font-size="15.00" fill="#000000">app</text>
</g>
<!-- /bin/practice_1.dart&#45;&gt;/lib/features/core/presentation/app.dart -->
<g id="edge6" class="edge">
<title>/bin/practice_1.dart-&gt;/lib/features/core/presentation/app.dart</title>
<path fill="none" stroke="#000000" d="M708.2883,-489.5097C609.3427,-486.2034 370.511,-476.2843 340,-456.8 285.2089,-421.8104 257.3867,-345.4887 246.1673,-305.8383"/>
<polygon fill="#000000" stroke="#000000" points="248.4738,-304.9846 244.2628,-298.8797 243.7476,-306.2782 248.4738,-304.9846"/>
</g>
<!-- /lib/features/core/domain/entities/search_query.dart -->
<g id="node9" class="node">
<title>/lib/features/core/domain/entities/search_query.dart</title>
<path fill="#e6e6fa" stroke="#000000" stroke-width=".4" d="M150.3566,-100C150.3566,-100 67.6434,-100 67.6434,-100 61.6434,-100 55.6434,-94 55.6434,-88 55.6434,-88 55.6434,-76 55.6434,-76 55.6434,-70 61.6434,-64 67.6434,-64 67.6434,-64 150.3566,-64 150.3566,-64 156.3566,-64 162.3566,-70 162.3566,-76 162.3566,-76 162.3566,-88 162.3566,-88 162.3566,-94 156.3566,-100 150.3566,-100"/>
<text text-anchor="middle" x="109" y="-77.5" font-family="Arial" font-size="15.00" fill="#000000">search_query</text>
</g>
<!-- /lib/features/core/data/debug/weather_repository_debug.dart&#45;&gt;/lib/features/core/domain/entities/search_query.dart -->
<g id="edge7" class="edge">
<title>/lib/features/core/data/debug/weather_repository_debug.dart-&gt;/lib/features/core/domain/entities/search_query.dart</title>
<path fill="none" stroke="#000000" d="M406.7431,-262.7546C398.965,-258.2595 391.3173,-252.9367 385,-246.8 345.6799,-208.604 370.6518,-168.3857 324,-139.6 295.0254,-121.7217 202.8219,-143.7048 171,-131.6 155.942,-125.872 141.7105,-115.036 130.6894,-104.9499"/>
<polygon fill="#000000" stroke="#000000" points="132.3159,-103.116 125.5474,-100.0844 128.9481,-106.6752 132.3159,-103.116"/>
</g>
<!-- /lib/features/core/domain/entities/search_response.dart -->
<g id="node10" class="node">
<title>/lib/features/core/domain/entities/search_response.dart</title>
<path fill="#e6e6fa" stroke="#000000" stroke-width=".4" d="M299.5335,-100C299.5335,-100 192.4665,-100 192.4665,-100 186.4665,-100 180.4665,-94 180.4665,-88 180.4665,-88 180.4665,-76 180.4665,-76 180.4665,-70 186.4665,-64 192.4665,-64 192.4665,-64 299.5335,-64 299.5335,-64 305.5335,-64 311.5335,-70 311.5335,-76 311.5335,-76 311.5335,-88 311.5335,-88 311.5335,-94 305.5335,-100 299.5335,-100"/>
<text text-anchor="middle" x="246" y="-77.5" font-family="Arial" font-size="15.00" fill="#000000">search_response</text>
</g>
<!-- /lib/features/core/data/debug/weather_repository_debug.dart&#45;&gt;/lib/features/core/domain/entities/search_response.dart -->
<g id="edge8" class="edge">
<title>/lib/features/core/data/debug/weather_repository_debug.dart-&gt;/lib/features/core/domain/entities/search_response.dart</title>
<path fill="none" stroke="#000000" d="M445.3302,-262.7108C438.4577,-233.1778 420.9726,-174.4147 385,-139.6 366.5557,-121.7494 341.7918,-109.116 318.277,-100.3246"/>
<polygon fill="#000000" stroke="#000000" points="319.1001,-98.0171 311.6841,-97.9458 317.437,-102.6262 319.1001,-98.0171"/>
</g>
<!-- /lib/features/core/domain/repositories/weather_repository.dart -->
<g id="node11" class="node">
<title>/lib/features/core/domain/repositories/weather_repository.dart</title>
<path fill="#e6e6fa" stroke="#000000" stroke-width=".4" d="M299.5218,-183.6C299.5218,-183.6 180.4782,-183.6 180.4782,-183.6 174.4782,-183.6 168.4782,-177.6 168.4782,-171.6 168.4782,-171.6 168.4782,-159.6 168.4782,-159.6 168.4782,-153.6 174.4782,-147.6 180.4782,-147.6 180.4782,-147.6 299.5218,-147.6 299.5218,-147.6 305.5218,-147.6 311.5218,-153.6 311.5218,-159.6 311.5218,-159.6 311.5218,-171.6 311.5218,-171.6 311.5218,-177.6 305.5218,-183.6 299.5218,-183.6"/>
<text text-anchor="middle" x="240" y="-161.1" font-family="Arial" font-size="15.00" fill="#000000">weather_repository</text>
</g>
<!-- /lib/features/core/data/debug/weather_repository_debug.dart&#45;&gt;/lib/features/core/domain/repositories/weather_repository.dart -->
<g id="edge9" class="edge">
<title>/lib/features/core/data/debug/weather_repository_debug.dart-&gt;/lib/features/core/domain/repositories/weather_repository.dart</title>
<path fill="none" stroke="#000000" d="M407.507,-262.7155C396.8019,-257.7837 385.3755,-252.2823 375,-246.8 339.8517,-228.228 301.0972,-204.5697 274.1617,-187.5876"/>
<polygon fill="#000000" stroke="#000000" points="275.1448,-185.3104 267.9194,-183.638 272.5249,-189.4512 275.1448,-185.3104"/>
</g>
<!-- /lib/features/core/data/osm/models/osm_weather.dart -->
<g id="node3" class="node">
<title>/lib/features/core/data/osm/models/osm_weather.dart</title>
<path fill="#e6e6fa" stroke="#000000" stroke-width=".4" d="M905.015,-100C905.015,-100 822.985,-100 822.985,-100 816.985,-100 810.985,-94 810.985,-88 810.985,-88 810.985,-76 810.985,-76 810.985,-70 816.985,-64 822.985,-64 822.985,-64 905.015,-64 905.015,-64 911.015,-64 917.015,-70 917.015,-76 917.015,-76 917.015,-88 917.015,-88 917.015,-94 911.015,-100 905.015,-100"/>
<text text-anchor="middle" x="864" y="-77.5" font-family="Arial" font-size="15.00" fill="#000000">osm_weather</text>
</g>
<!-- /lib/features/core/data/osm/osm_api.dart&#45;&gt;/lib/features/core/data/osm/models/osm_weather.dart -->
<g id="edge10" class="edge">
<title>/lib/features/core/data/osm/osm_api.dart-&gt;/lib/features/core/data/osm/models/osm_weather.dart</title>
<path fill="none" stroke="#000000" d="M864,-147.46C864,-135.7381 864,-120.3147 864,-107.3835"/>
<polygon fill="#000000" stroke="#000000" points="866.4501,-107.1045 864,-100.1046 861.5501,-107.1046 866.4501,-107.1045"/>
</g>
<!-- /lib/features/core/data/osm/weather_repository_osm.dart&#45;&gt;/lib/features/core/data/osm/osm_api.dart -->
<g id="edge11" class="edge">
<title>/lib/features/core/data/osm/weather_repository_osm.dart-&gt;/lib/features/core/data/osm/osm_api.dart</title>
<path fill="none" stroke="#000000" d="M852.2183,-262.5462C854.5736,-243.1661 858.3122,-212.4027 860.9451,-190.7374"/>
<polygon fill="#000000" stroke="#000000" points="863.3796,-191.0129 861.792,-183.7684 858.5154,-190.4217 863.3796,-191.0129"/>
</g>
<!-- /lib/features/core/data/osm/weather_repository_osm.dart&#45;&gt;/lib/features/core/domain/entities/search_query.dart -->
<g id="edge12" class="edge">
<title>/lib/features/core/data/osm/weather_repository_osm.dart-&gt;/lib/features/core/domain/entities/search_query.dart</title>
<path fill="none" stroke="#000000" d="M788.1217,-262.7896C774.9801,-259.5963 761.1134,-256.691 748,-254.8 724.1195,-251.3563 553.1569,-256.3502 531,-246.8 468.602,-219.905 484.4649,-166.3393 422,-139.6 370.6968,-117.6387 223.3593,-150.9088 171,-131.6 155.8844,-126.0258 141.6479,-115.2031 130.6384,-105.0861"/>
<polygon fill="#000000" stroke="#000000" points="132.264,-103.251 125.5032,-100.2023 128.8872,-106.8017 132.264,-103.251"/>
</g>
<!-- /lib/features/core/data/osm/weather_repository_osm.dart&#45;&gt;/lib/features/core/domain/entities/search_response.dart -->
<g id="edge13" class="edge">
<title>/lib/features/core/data/osm/weather_repository_osm.dart-&gt;/lib/features/core/domain/entities/search_response.dart</title>
<path fill="none" stroke="#000000" d="M787.842,-262.7764C774.7818,-259.6052 761.018,-256.712 748,-254.8 727.0945,-251.7295 574.3891,-260.1367 558,-246.8 519.8911,-215.7887 566.554,-173.5103 531,-139.6 501.0977,-111.0801 392.8788,-95.4806 318.7441,-87.9401"/>
<polygon fill="#000000" stroke="#000000" points="318.8886,-85.4924 311.68,-87.2354 318.4022,-90.3682 318.8886,-85.4924"/>
</g>
<!-- /lib/features/core/data/osm/weather_repository_osm.dart&#45;&gt;/lib/features/core/domain/repositories/weather_repository.dart -->
<g id="edge14" class="edge">
<title>/lib/features/core/data/osm/weather_repository_osm.dart-&gt;/lib/features/core/domain/repositories/weather_repository.dart</title>
<path fill="none" stroke="#000000" d="M788.1241,-262.7732C774.9823,-259.581 761.115,-256.6804 748,-254.8 648.0704,-240.4723 620.6898,-262.7106 521,-246.8 441.0092,-234.0334 351.6022,-205.6497 295.5711,-186.068"/>
<polygon fill="#000000" stroke="#000000" points="296.3227,-183.7354 288.9063,-183.7253 294.6977,-188.3581 296.3227,-183.7354"/>
</g>
<!-- /lib/features/core/data/vc/models/vc_weather.dart -->
<g id="node6" class="node">
<title>/lib/features/core/data/vc/models/vc_weather.dart</title>
<path fill="#e6e6fa" stroke="#000000" stroke-width=".4" d="M701.1835,-100C701.1835,-100 632.8165,-100 632.8165,-100 626.8165,-100 620.8165,-94 620.8165,-88 620.8165,-88 620.8165,-76 620.8165,-76 620.8165,-70 626.8165,-64 632.8165,-64 632.8165,-64 701.1835,-64 701.1835,-64 707.1835,-64 713.1835,-70 713.1835,-76 713.1835,-76 713.1835,-88 713.1835,-88 713.1835,-94 707.1835,-100 701.1835,-100"/>
<text text-anchor="middle" x="667" y="-77.5" font-family="Arial" font-size="15.00" fill="#000000">vc_weather</text>
</g>
<!-- /lib/features/core/data/vc/vc_api.dart&#45;&gt;/lib/features/core/data/vc/models/vc_weather.dart -->
<g id="edge15" class="edge">
<title>/lib/features/core/data/vc/vc_api.dart-&gt;/lib/features/core/data/vc/models/vc_weather.dart</title>
<path fill="none" stroke="#000000" d="M667,-147.46C667,-135.7381 667,-120.3147 667,-107.3835"/>
<polygon fill="#000000" stroke="#000000" points="669.4501,-107.1045 667,-100.1046 664.5501,-107.1046 669.4501,-107.1045"/>
</g>
<!-- /lib/features/core/data/vc/weather_repository_vc.dart&#45;&gt;/lib/features/core/data/vc/vc_api.dart -->
<g id="edge16" class="edge">
<title>/lib/features/core/data/vc/weather_repository_vc.dart-&gt;/lib/features/core/data/vc/vc_api.dart</title>
<path fill="none" stroke="#000000" d="M655.2183,-262.5462C657.5736,-243.1661 661.3122,-212.4027 663.9451,-190.7374"/>
<polygon fill="#000000" stroke="#000000" points="666.3796,-191.0129 664.792,-183.7684 661.5154,-190.4217 666.3796,-191.0129"/>
</g>
<!-- /lib/features/core/data/vc/weather_repository_vc.dart&#45;&gt;/lib/features/core/domain/entities/search_query.dart -->
<g id="edge17" class="edge">
<title>/lib/features/core/data/vc/weather_repository_vc.dart-&gt;/lib/features/core/domain/entities/search_query.dart</title>
<path fill="none" stroke="#000000" d="M593.3096,-262.7723C581.6811,-259.7416 569.5229,-256.9027 558,-254.8 520.6717,-247.9884 507.5464,-262.4956 473,-246.8 409.9738,-218.165 423.7431,-166.6015 360,-139.6 321.292,-123.2033 210.3647,-146.3506 171,-131.6 155.9137,-125.9469 141.6798,-115.1174 130.6643,-105.0162"/>
<polygon fill="#000000" stroke="#000000" points="132.2904,-103.1818 125.5257,-100.1419 128.9182,-106.7368 132.2904,-103.1818"/>
</g>
<!-- /lib/features/core/data/vc/weather_repository_vc.dart&#45;&gt;/lib/features/core/domain/entities/search_response.dart -->
<g id="edge18" class="edge">
<title>/lib/features/core/data/vc/weather_repository_vc.dart-&gt;/lib/features/core/domain/entities/search_response.dart</title>
<path fill="none" stroke="#000000" d="M582.5103,-262.7691C565.8631,-257.6273 550.9349,-252.0076 544,-246.8 498.3028,-212.4852 519.6047,-172.6719 473,-139.6 448.2769,-122.0558 375.3319,-105.4063 318.7333,-94.5622"/>
<polygon fill="#000000" stroke="#000000" points="318.8999,-92.1002 311.5659,-93.203 317.9869,-96.9144 318.8999,-92.1002"/>
</g>
<!-- /lib/features/core/data/vc/weather_repository_vc.dart&#45;&gt;/lib/features/core/domain/repositories/weather_repository.dart -->
<g id="edge19" class="edge">
<title>/lib/features/core/data/vc/weather_repository_vc.dart-&gt;/lib/features/core/domain/repositories/weather_repository.dart</title>
<path fill="none" stroke="#000000" d="M593.5806,-262.7474C581.8737,-259.6998 569.6173,-256.861 558,-254.8 516.2798,-247.3987 504.3815,-255.9064 463,-246.8 400.0386,-232.9447 330.7358,-205.6925 286.3637,-186.5956"/>
<polygon fill="#000000" stroke="#000000" points="287.1287,-184.257 279.7316,-183.722 285.1805,-188.7531 287.1287,-184.257"/>
</g>
<!-- /lib/features/core/domain/repositories/weather_repository.dart&#45;&gt;/lib/features/core/domain/entities/search_query.dart -->
<g id="edge20" class="edge">
<title>/lib/features/core/domain/repositories/weather_repository.dart-&gt;/lib/features/core/domain/entities/search_query.dart</title>
<path fill="none" stroke="#000000" d="M199.4255,-147.4325C189.8823,-142.6647 179.9032,-137.2601 171,-131.6 158.5185,-123.6649 145.6082,-113.6683 134.8212,-104.7322"/>
<polygon fill="#000000" stroke="#000000" points="136.3245,-102.7954 129.3874,-100.1724 133.1747,-106.5489 136.3245,-102.7954"/>
</g>
<!-- /lib/features/core/domain/repositories/weather_repository.dart&#45;&gt;/lib/features/core/domain/entities/search_response.dart -->
<g id="edge21" class="edge">
<title>/lib/features/core/domain/repositories/weather_repository.dart-&gt;/lib/features/core/domain/entities/search_response.dart</title>
<path fill="none" stroke="#000000" d="M241.3019,-147.46C242.1432,-135.7381 243.2501,-120.3147 244.1782,-107.3835"/>
<polygon fill="#000000" stroke="#000000" points="246.6432,-107.262 244.7006,-100.1046 241.7557,-106.9112 246.6432,-107.262"/>
</g>
<!-- /lib/features/core/presentation/app.dart&#45;&gt;/lib/features/core/domain/entities/search_query.dart -->
<g id="edge22" class="edge">
<title>/lib/features/core/presentation/app.dart-&gt;/lib/features/core/domain/entities/search_query.dart</title>
<path fill="none" stroke="#000000" d="M212.9567,-276.2753C194.4631,-271.816 170.7212,-263.1835 156,-246.8 120.4488,-207.2343 111.6305,-142.555 109.5453,-107.1364"/>
<polygon fill="#000000" stroke="#000000" points="111.9873,-106.9129 109.1953,-100.0422 107.0933,-107.1544 111.9873,-106.9129"/>
</g>
<!-- /lib/features/core/presentation/app.dart&#45;&gt;/lib/features/core/domain/repositories/weather_repository.dart -->
<g id="edge23" class="edge">
<title>/lib/features/core/presentation/app.dart-&gt;/lib/features/core/domain/repositories/weather_repository.dart</title>
<path fill="none" stroke="#000000" d="M240,-262.5462C240,-243.2503 240,-212.67 240,-191.0205"/>
<polygon fill="#000000" stroke="#000000" points="242.4501,-190.7683 240,-183.7684 237.5501,-190.7684 242.4501,-190.7683"/>
</g>
</g>
</svg>